HIERARCHY
ROOT root
{
	OFFSET 0.000000 0.000000 0.000000
	CHANNELS 6 Xposition Yposition Zposition Zrotation Yrotation Xrotation
	JOINT lhip
	{
		OFFSET 0.058581 -0.082280 -0.017664
		CHANNELS 3 Zrotation Yrotation Xrotation
		JOINT lknee
		{
			OFFSET 0.043451 -0.386469 0.008037
			CHANNELS 3 Zrotation Yrotation Xrotation
			JOINT lankle
			{
				OFFSET -0.014790 -0.426874 -0.037428
				CHANNELS 3 Zrotation Yrotation Xrotation
				JOINT ltoe
				{
					OFFSET 0.041054 -0.060286 0.122042
					CHANNELS 3 Zrotation Yrotation Xrotation
					End Site
					{
						OFFSET 0.000000 0.000000 0.000000
					}
				}
			}
		}
	}
	JOINT rhip
	{
		OFFSET -0.060310 -0.090513 -0.013543
		CHANNELS 3 Zrotation Yrotation Xrotation
		JOINT rknee
		{
			OFFSET -0.043257 -0.383688 -0.004843
			CHANNELS 3 Zrotation Yrotation Xrotation
			JOINT rankle
			{
				OFFSET 0.019056 -0.420046 -0.034562
				CHANNELS 3 Zrotation Yrotation Xrotation
				JOINT rtoe
				{
					OFFSET -0.034840 -0.062106 0.130323
					CHANNELS 3 Zrotation Yrotation Xrotation
					End Site
					{
						OFFSET 0.000000 0.000000 0.000000
					}
				}
			}
		}
	}
	JOINT lowerback
	{
		OFFSET 0.004439 0.124404 -0.038385
		CHANNELS 3 Zrotation Yrotation Xrotation
		JOINT upperback
		{
			OFFSET 0.004488 0.137956 0.026820
			CHANNELS 3 Zrotation Yrotation Xrotation
			JOINT chest
			{
				OFFSET -0.002265 0.056032 0.002855
				CHANNELS 3 Zrotation Yrotation Xrotation
				JOINT lowerneck
				{
					OFFSET -0.013390 0.211636 -0.033468
					CHANNELS 3 Zrotation Yrotation Xrotation
					JOINT upperneck
					{
						OFFSET 0.010113 0.088937 0.050410
						CHANNELS 3 Zrotation Yrotation Xrotation
						End Site
						{
							OFFSET 0.000000 0.000000 0.000000
						}
					}
				}
				JOINT lclavicle
				{
					OFFSET 0.071702 0.114000 -0.018898
					CHANNELS 3 Zrotation Yrotation Xrotation
					JOINT lshoulder
					{
						OFFSET 0.122921 0.045205 -0.019046
						CHANNELS 3 Zrotation Yrotation Xrotation
						JOINT lelbow
						{
							OFFSET 0.255332 -0.015649 -0.022946
							CHANNELS 3 Zrotation Yrotation Xrotation
							JOINT lwrist
							{
								OFFSET 0.265709 0.012698 -0.007375
								CHANNELS 3 Zrotation Yrotation Xrotation
								End Site
								{
									OFFSET 0.000000 0.000000 0.000000
								}
							}
						}
					}
				}
				JOINT rclavicle
				{
					OFFSET -0.082954 0.112472 -0.023707
					CHANNELS 3 Zrotation Yrotation Xrotation
					JOINT rshoulder
					{
						OFFSET -0.113228 0.046853 -0.008472
						CHANNELS 3 Zrotation Yrotation Xrotation
						JOINT relbow
						{
							OFFSET -0.260127 -0.014369 -0.031269
							CHANNELS 3 Zrotation Yrotation Xrotation
							JOINT rwrist
							{
								OFFSET -0.269108 0.006794 -0.006027
								CHANNELS 3 Zrotation Yrotation Xrotation
								End Site
								{
									OFFSET 0.000000 0.000000 0.000000
								}
							}
						}
					}
				}
			}
		}
	}
}
MOTION
Frames: 7
Frame Time: 0.033333
0.003908 0.025008 0.931165 164.239903 3.002157 79.499898 -1.331192 -4.220483 1.072711 -16.184626 -17.408566 48.780346 3.437116 7.207840 -25.426543 0.000000 -0.000000 0.000000 0.088551 9.767611 -24.118301 0.911652 19.121709 13.236118 20.078185 5.017243 19.804001 0.000000 -0.000000 0.000000 -0.763381 -6.471154 21.439132 3.290641 -8.243998 1.070341 3.065038 -4.187323 0.793067 0.536179 15.676813 8.446535 5.198464 22.619699 3.341665 -19.036541 -11.021147 -0.959186 -32.786767 -20.850247 -2.169337 47.578031 -52.032539 -41.456190 -4.463722 -10.911517 -15.280565 18.584300 -2.596817 1.624334 45.374043 -14.533411 -0.187150 -27.463529 30.441935 -24.237382 17.419595 1.985591 -15.333441 
-0.012750 -0.000525 0.930407 160.696784 2.886344 80.105364 -2.360248 -2.115422 1.331176 -11.150672 -15.314009 42.576326 4.991140 7.803158 -29.966246 0.000000 -0.000000 0.000000 1.048418 7.477083 -25.503315 0.163926 14.989500 10.198216 21.489199 0.501180 25.243297 0.000000 -0.000000 0.000000 -1.003465 -7.208821 23.238401 3.581967 -8.869535 -1.627475 3.969232 -4.948041 1.349960 -0.445263 15.348426 8.232604 4.550524 25.227275 4.093927 -18.999941 -9.885391 -0.171436 -33.719550 -21.519089 -3.356605 46.703197 -51.090228 -41.476158 -2.896397 -10.196573 -15.599074 17.934815 -4.508854 1.109431 45.858783 -14.897596 0.699411 -28.674188 32.237278 -24.670568 16.290200 1.673484 -11.775461 
-0.028001 -0.024951 0.931293 156.456395 2.225778 81.204279 -3.639829 -1.365049 -0.258320 -10.175950 -14.379370 39.277668 6.112961 10.530040 -31.141862 0.000000 -0.000000 0.000000 2.204346 6.909553 -28.402167 -1.018436 12.127324 15.016404 16.952728 -2.934564 17.960733 0.000000 -0.000000 0.000000 -1.792612 -7.691090 23.107639 3.756625 -9.098555 -2.383829 4.458312 -5.226134 1.756877 -1.370287 15.690251 7.758230 3.651847 26.785505 4.183194 -18.896230 -9.240116 0.309196 -34.436335 -20.892748 -4.384046 47.293030 -50.787774 -42.428251 -0.968304 -8.785489 -17.224381 17.956861 -4.959956 0.610412 46.282634 -15.342360 0.152820 -29.509413 34.609986 -23.778007 15.478822 1.285196 -8.744144 
-0.043220 -0.049037 0.936163 151.968743 1.177913 81.613922 -5.552142 -3.455955 -2.931972 -10.116303 -11.512040 39.215739 5.608460 13.706356 -28.951402 0.000000 -0.000000 0.000000 2.355115 8.272440 -29.961394 -1.964097 9.455172 22.972040 10.612017 -6.945149 7.072380 0.000000 -0.000000 0.000000 -1.755789 -7.188121 21.792050 3.459025 -8.853836 -0.685815 3.388786 -5.977256 2.618142 -1.352903 16.944439 6.018219 2.500527 26.354142 4.145525 -18.462023 -9.490063 1.303780 -33.747455 -21.065969 -5.432320 48.682468 -49.306024 -43.382137 -0.392931 -8.305397 -18.367002 19.602378 -5.603560 -1.320101 46.937252 -14.152039 0.846377 -31.400642 35.805419 -22.781410 16.763055 1.686347 -8.494188 
-0.058849 -0.070127 0.945995 146.711652 0.656865 82.600029 -6.744832 -4.016955 -4.792896 -8.067733 -8.838682 36.690240 5.829942 15.712657 -26.758731 0.000000 -0.000000 0.000000 2.928038 8.787457 -31.650123 -2.059000 7.919618 31.412603 7.397033 -9.515365 0.994943 0.000000 -0.000000 0.000000 -2.065488 -8.429615 23.570201 3.677809 -8.834168 -3.311290 3.905538 -5.438795 2.105551 -2.626199 18.020946 6.658191 0.790251 28.431194 4.353507 -18.898727 -7.229507 0.999699 -36.092758 -18.214762 -5.158135 50.826390 -49.562286 -43.972096 -1.130451 -8.089484 -18.555419 18.641118 -4.680094 0.258935 47.215647 -12.231208 2.210024 -31.359678 37.423675 -22.610133 14.226942 2.172738 -7.778353 
-0.073137 -0.089030 0.955938 140.168582 0.261517 83.154394 -7.715058 -2.938502 -4.840382 -5.290382 -6.227853 32.166051 6.781383 17.259751 -24.956431 0.000000 -0.000000 0.000000 3.459676 9.275305 -32.386721 -0.440144 7.703142 40.554064 5.949297 -10.304531 -3.346180 0.000000 -0.000000 0.000000 -1.418767 -8.649166 22.903351 3.139828 -7.675656 -2.251737 3.369515 -4.536003 1.393443 -4.021323 18.598167 7.860617 -0.611359 29.437145 3.087882 -19.484571 -7.016333 1.269014 -36.741543 -15.780535 -5.250706 52.276292 -49.008470 -45.618045 -0.881279 -7.491611 -18.998001 18.722570 -2.704017 0.835344 47.527509 -11.065551 2.980017 -31.464547 39.759381 -22.414203 13.280936 2.533466 -6.703148 
-0.084717 -0.106374 0.964470 132.984749 0.246975 83.814842 -7.887618 -2.670033 -5.008804 -3.640041 -3.502850 28.261018 7.545583 18.850751 -22.672334 0.000000 -0.000000 0.000000 3.327873 10.530423 -32.184631 -0.412394 4.967830 48.178175 4.342477 -11.939143 -6.384938 0.000000 -0.000000 0.000000 -0.803654 -8.783754 22.269254 2.625936 -5.773649 -2.126310 2.832769 -3.384420 1.192337 -4.425049 18.836726 9.273286 -1.933946 30.217737 2.669624 -20.023617 -5.942666 1.233925 -38.129110 -14.081945 -4.463700 54.172299 -48.396383 -47.965299 -1.493555 -7.037849 -19.574478 18.689829 -1.224402 1.558695 47.072385 -8.878194 5.305418 -30.552913 42.181257 -20.875986 13.624900 2.919465 -5.996851 
